<svg viewBox="0 0 32 32" xmlns="http://www.w3.org/2000/svg">
 <defs>
  <style>.cls-1{fill:black;}</style>
 </defs>
 <title/>
 <g>
  <title>background</title>
  <rect fill="none" id="canvas_background" height="402" width="582" y="-1" x="-1"/>
 </g>
 <g>
  <title>Layer 1</title>
  <path id="svg_1" d="m23.52,29l-15,0a5.48,5.48 0 0 1 -5.31,-6.83l3.04,-12.41a1,1 0 0 1 1,-0.76l16.75,0a1,1 0 0 1 1,0.7l3.78,12.16a5.49,5.49 0 0 1 -0.83,4.91a5.41,5.41 0 0 1 -4.43,2.23zm-15.52,-18l-2.89,11.65a3.5,3.5 0 0 0 3.37,4.35l15,0a3.44,3.44 0 0 0 2.79,-1.42a3.5,3.5 0 0 0 0.53,-3.13l-3.52,-11.45l-15.28,0z"/>
  <path stroke="null" id="svg_2" d="m20,13.562587a1,0.75447 0 0 1 -1,-0.75447l0,-6.035764a3,2.263411 0 0 0 -6,0l0,6.035764a1,0.75447 0 0 1 -2,0l0,-6.035764a5,3.772352 0 0 1 10,0l0,6.035764a1,0.75447 0 0 1 -1,0.75447z"/>
 </g>
</svg>